<svg width="20" height="20" viewBox="0 0 20 20" fill="none" xmlns="http://www.w3.org/2000/svg">
<path d="M3.7682 10.1406L5.66663 9.44918C5.72523 9.42578 5.79554 9.41406 5.86581 9.41406H18.0299C18.358 9.41406 18.6158 9.67184 18.6158 10V18.2422C18.6158 19.2148 17.8307 20 16.858 20H5.13925C4.16656 20 3.38144 19.2148 3.38144 18.2422V10.6914C3.38144 10.4453 3.53382 10.2227 3.7682 10.1406Z" fill="#FC1A40"/>
<path d="M3.38143 10.6914V18.2422C3.38143 19.2148 4.16654 20 5.13924 20H10.9986V9.41406H5.8658C5.79549 9.41406 5.72518 9.42578 5.66662 9.44918L3.76819 10.1406C3.53381 10.2227 3.38143 10.4453 3.38143 10.6914Z" fill="#C60034"/>
<path d="M3.59237 3.81984C3.79155 3.01124 4.38924 2.37847 5.19784 2.12062C5.99471 1.87448 6.85022 2.05031 7.47127 2.61277L8.83069 3.80812L9.10018 2.01519C9.22909 1.19488 9.75643 0.50343 10.5415 0.175344C10.6939 0.116712 10.8462 0.0698366 10.9986 0.0463991C11.6431 -0.0825072 12.3111 0.0581178 12.8502 0.456594C13.565 0.972219 13.9283 1.83941 13.8111 2.70656C13.6822 3.57374 13.0962 4.31202 12.2642 4.60499L10.9986 5.06202L9.43998 5.63624C9.42827 5.63624 9.42827 5.63624 9.42827 5.63624L6.72123 6.6323C6.45174 6.72609 6.17049 6.773 5.90096 6.773C5.32666 6.773 4.7642 6.56198 4.31889 6.16359C3.66268 5.57765 3.38143 4.67527 3.59237 3.81984Z" fill="#FE9923"/>
<path d="M4.31893 6.16361C4.76424 6.56201 5.32674 6.77303 5.901 6.77303C6.17049 6.77303 6.45174 6.72611 6.72127 6.63232L9.4283 5.63627C9.4283 5.63627 9.4283 5.63627 9.44002 5.63627L10.9986 5.06205V0.0463867C10.8463 0.0698633 10.6939 0.116699 10.5416 0.175332C9.75647 0.503418 9.22908 1.19486 9.10022 2.01518L8.83072 3.80811L7.47131 2.61275C6.85026 2.05029 5.99475 1.87447 5.19787 2.12061C4.38928 2.37846 3.79162 3.01123 3.5924 3.81982C3.38143 4.67529 3.66268 5.57768 4.31893 6.16361Z" fill="#FE8821"/>
<path d="M1.37754 9.14444L2.17441 11.3476C2.2682 11.5819 2.49086 11.7226 2.72523 11.7226C2.79555 11.7226 2.86586 11.7108 2.92441 11.6875L8.98305 9.48433L9.53379 7.66792L10.9986 7.99601L12.2877 8.28897L18.3463 6.08585C18.651 5.9687 18.8033 5.62882 18.6979 5.33585L17.8893 3.1328C17.7369 2.68749 17.4087 2.33585 16.9869 2.13667C16.565 1.93749 16.0846 1.91401 15.6393 2.07808L10.9986 3.76558L10.6821 3.88273C10.6821 3.88273 9.41656 6.17964 9.38137 6.17964C9.35789 6.17964 8.85402 5.89839 8.36183 5.62882C7.86976 5.35929 7.37754 5.07808 7.37754 5.07808L2.43226 6.88272C1.98695 7.04679 1.63539 7.37495 1.43621 7.79683C1.23691 8.21866 1.21352 8.69917 1.37754 9.14444Z" fill="#FF3E75"/>
<path d="M1.37752 9.14443L2.1744 11.3476C2.26819 11.5819 2.49084 11.7226 2.72522 11.7226C2.79553 11.7226 2.86584 11.7108 2.9244 11.6874L8.98303 9.48431L9.53377 7.66791L10.9986 7.99599V3.76556L10.6822 3.88271C10.6822 3.88271 9.41658 6.17963 9.38139 6.17963C9.35791 6.17963 8.85404 5.89838 8.36186 5.62881C7.86975 5.35928 7.37752 5.07806 7.37752 5.07806L2.43225 6.88271C1.98694 7.04677 1.63537 7.37494 1.43619 7.79681C1.2369 8.21865 1.2135 8.69916 1.37752 9.14443Z" fill="#FC1A40"/>
<path d="M12.7564 9.41406V20H9.24081V9.41406H12.7564V9.41406Z" fill="#FCBF29"/>
<path d="M10.6822 3.88275L10.9987 4.74994L12.2877 8.28904L10.9987 8.75783L9.53381 9.28517L8.98307 9.48435L7.37753 5.0781L10.6822 3.88275Z" fill="#FCBF29"/>
<path d="M9.24065 9.41406H10.9985V20H9.24065V9.41406Z" fill="#FE9923"/>
<path d="M7.37752 5.0781L8.98303 9.48435L9.53377 9.28513L10.9986 8.75779V4.74994L10.6822 3.88275L7.37752 5.0781Z" fill="#FE9923"/>
</svg>
