<svg width="20" height="20" viewBox="0 0 20 20" fill="none" xmlns="http://www.w3.org/2000/svg">
<path d="M3.7682 10.1406L5.66663 9.44916C5.72523 9.42577 5.79554 9.41405 5.86581 9.41405H18.0299C18.358 9.41405 18.6158 9.67182 18.6158 9.99998V18.2422C18.6158 19.2148 17.8307 20 16.858 20H5.13925C4.16656 20 3.38144 19.2148 3.38144 18.2422V10.6914C3.38144 10.4453 3.53382 10.2226 3.7682 10.1406Z" fill="#FC1A40"/>
<path d="M3.38142 10.6914V18.2422C3.38142 19.2148 4.16654 20 5.13924 20H10.9986V9.41405H5.8658C5.79549 9.41405 5.72517 9.42577 5.66662 9.44916L3.76818 10.1406C3.53381 10.2226 3.38142 10.4453 3.38142 10.6914Z" fill="#C60034"/>
<path d="M3.59236 3.81985C3.79154 3.01126 4.38924 2.37848 5.19783 2.12063C5.99471 1.8745 6.85022 2.05032 7.47127 2.61278L8.83068 3.80813L9.10018 2.0152C9.22908 1.19489 9.75643 0.503446 10.5415 0.17536C10.6939 0.116727 10.8462 0.0698518 10.9986 0.0464143C11.6431 -0.0824919 12.3111 0.0581331 12.8502 0.45661C13.565 0.972235 13.9283 1.83942 13.8111 2.70657C13.6822 3.57376 13.0962 4.31204 12.2642 4.60501L10.9986 5.06204L9.43998 5.63626C9.42826 5.63626 9.42826 5.63626 9.42826 5.63626L6.72123 6.63231C6.45174 6.7261 6.17049 6.77302 5.90096 6.77302C5.32666 6.77302 4.7642 6.562 4.31889 6.1636C3.66268 5.57766 3.38143 4.67528 3.59236 3.81985Z" fill="#FE9923"/>
<path d="M4.31892 6.1636C4.76424 6.562 5.32674 6.77301 5.90099 6.77301C6.17049 6.77301 6.45174 6.7261 6.72127 6.63231L9.4283 5.63625C9.4283 5.63625 9.4283 5.63625 9.44002 5.63625L10.9986 5.06204V0.0463715C10.8463 0.069848 10.6939 0.116684 10.5416 0.175317C9.75646 0.503403 9.22908 1.19485 9.10021 2.01516L8.83072 3.80809L7.47131 2.61274C6.85025 2.05028 5.99474 1.87446 5.19787 2.12059C4.38928 2.37844 3.79162 3.01122 3.5924 3.81981C3.38142 4.67528 3.66267 5.57766 4.31892 6.1636Z" fill="#FE8821"/>
<path d="M1.37753 9.14446L2.17441 11.3476C2.2682 11.582 2.49085 11.7226 2.72523 11.7226C2.79554 11.7226 2.86585 11.7109 2.92441 11.6875L8.98304 9.48434L9.53378 7.66794L10.9986 7.99602L12.2877 8.28899L18.3463 6.08587C18.651 5.96872 18.8033 5.62883 18.6978 5.33587L17.8893 3.13282C17.7369 2.68751 17.4087 2.33587 16.9869 2.13669C16.565 1.93751 16.0846 1.91403 15.6393 2.07809L10.9986 3.76559L10.6821 3.88274C10.6821 3.88274 9.41656 6.17965 9.38136 6.17965C9.35789 6.17965 8.85402 5.8984 8.36183 5.62883C7.86976 5.3593 7.37753 5.07809 7.37753 5.07809L2.43226 6.88274C1.98695 7.0468 1.63539 7.37497 1.43621 7.79684C1.23691 8.21868 1.21351 8.69919 1.37753 9.14446Z" fill="#FF3E75"/>
<path d="M1.37752 9.14446L2.17439 11.3476C2.26818 11.582 2.49084 11.7226 2.72521 11.7226C2.79553 11.7226 2.86584 11.7109 2.92439 11.6875L8.98303 9.48434L9.53377 7.66794L10.9986 7.99602V3.76559L10.6822 3.88274C10.6822 3.88274 9.41658 6.17966 9.38138 6.17966C9.35791 6.17966 8.85404 5.89841 8.36185 5.62884C7.86974 5.35931 7.37752 5.07809 7.37752 5.07809L2.43224 6.88274C1.98693 7.04681 1.63537 7.37497 1.43619 7.79684C1.23689 8.21868 1.21349 8.69919 1.37752 9.14446Z" fill="#FC1A40"/>
<path d="M12.7564 9.41405V20H9.2408V9.41405H12.7564V9.41405Z" fill="#FCBF29"/>
<path d="M10.6822 3.88275L10.9987 4.74994L12.2877 8.28904L10.9987 8.75783L9.53381 9.28517L8.98307 9.48435L7.37752 5.0781L10.6822 3.88275Z" fill="#FCBF29"/>
<path d="M9.24065 9.41405H10.9985V20H9.24065V9.41405Z" fill="#FE9923"/>
<path d="M7.37752 5.0781L8.98303 9.48435L9.53377 9.28513L10.9986 8.75779V4.74994L10.6822 3.88275L7.37752 5.0781Z" fill="#FE9923"/>
</svg>
