<svg width="20" height="20" viewBox="0 0 20 20" fill="none" xmlns="http://www.w3.org/2000/svg">
<path d="M3.76817 10.1406L5.6666 9.44916C5.7252 9.42577 5.79551 9.41405 5.86578 9.41405H18.0298C18.358 9.41405 18.6158 9.67182 18.6158 9.99998V18.2422C18.6158 19.2148 17.8307 20 16.858 20H5.13922C4.16653 20 3.38141 19.2148 3.38141 18.2422V10.6914C3.38141 10.4453 3.53379 10.2226 3.76817 10.1406Z" fill="#FC1A40"/>
<path d="M3.38141 10.6914V18.2422C3.38141 19.2148 4.16653 20 5.13922 20H10.9986V9.41405H5.86578C5.79547 9.41405 5.72516 9.42577 5.6666 9.44916L3.76817 10.1406C3.53379 10.2226 3.38141 10.4453 3.38141 10.6914Z" fill="#C60034"/>
<path d="M3.59235 3.81985C3.79153 3.01126 4.38922 2.37848 5.19782 2.12063C5.99469 1.8745 6.8502 2.05032 7.47126 2.61278L8.83067 3.80813L9.10016 2.0152C9.22907 1.19489 9.75641 0.503446 10.5415 0.17536C10.6939 0.116727 10.8462 0.0698518 10.9986 0.0464143C11.6431 -0.0824919 12.3111 0.0581331 12.8502 0.45661C13.565 0.972235 13.9282 1.83942 13.8111 2.70657C13.6822 3.57376 13.0962 4.31204 12.2642 4.60501L10.9986 5.06204L9.43997 5.63626C9.42825 5.63626 9.42825 5.63626 9.42825 5.63626L6.72122 6.63231C6.45172 6.7261 6.17047 6.77302 5.90094 6.77302C5.32665 6.77302 4.76418 6.562 4.31887 6.1636C3.66266 5.57766 3.38141 4.67528 3.59235 3.81985Z" fill="#FE9923"/>
<path d="M4.31891 6.1636C4.76422 6.562 5.32672 6.77301 5.90098 6.77301C6.17047 6.77301 6.45172 6.7261 6.72125 6.63231L9.42828 5.63625C9.42828 5.63625 9.42828 5.63625 9.44 5.63625L10.9986 5.06204V0.0463715C10.8463 0.069848 10.6939 0.116684 10.5416 0.175317C9.75645 0.503403 9.22906 1.19485 9.1002 2.01516L8.8307 3.80809L7.47129 2.61274C6.85024 2.05028 5.99473 1.87446 5.19785 2.12059C4.38926 2.37844 3.7916 3.01122 3.59239 3.81981C3.38141 4.67528 3.66266 5.57766 4.31891 6.1636Z" fill="#FE8821"/>
<path d="M1.37752 9.14446L2.17439 11.3476C2.26818 11.582 2.49084 11.7226 2.72521 11.7226C2.79553 11.7226 2.86584 11.7109 2.92439 11.6875L8.98303 9.48434L9.53377 7.66794L10.9986 7.99602L12.2876 8.28899L18.3463 6.08587C18.651 5.96872 18.8033 5.62883 18.6978 5.33587L17.8892 3.13282C17.7369 2.68751 17.4087 2.33587 16.9869 2.13669C16.565 1.93751 16.0845 1.91403 15.6392 2.07809L10.9986 3.76559L10.6821 3.88274C10.6821 3.88274 9.41654 6.17965 9.38135 6.17965C9.35787 6.17965 8.854 5.8984 8.36182 5.62883C7.86975 5.3593 7.37752 5.07809 7.37752 5.07809L2.43225 6.88274C1.98693 7.0468 1.63537 7.37497 1.43619 7.79684C1.23689 8.21868 1.2135 8.69919 1.37752 9.14446Z" fill="#FF3E75"/>
<path d="M1.3775 9.14446L2.17438 11.3476C2.26817 11.582 2.49082 11.7226 2.7252 11.7226C2.79551 11.7226 2.86582 11.7109 2.92438 11.6875L8.98301 9.48434L9.53375 7.66794L10.9986 7.99602V3.76559L10.6822 3.88274C10.6822 3.88274 9.41656 6.17966 9.38137 6.17966C9.35789 6.17966 8.85403 5.89841 8.36184 5.62884C7.86973 5.35931 7.3775 5.07809 7.3775 5.07809L2.43223 6.88274C1.98692 7.04681 1.63535 7.37497 1.43617 7.79684C1.23688 8.21868 1.21348 8.69919 1.3775 9.14446Z" fill="#FC1A40"/>
<path d="M12.7564 9.41405V20H9.24078V9.41405H12.7564V9.41405Z" fill="#FCBF29"/>
<path d="M10.6822 3.88275L10.9986 4.74994L12.2877 8.28904L10.9986 8.75783L9.53379 9.28517L8.98305 9.48435L7.3775 5.0781L10.6822 3.88275Z" fill="#FCBF29"/>
<path d="M9.2406 9.41405H10.9984V20H9.2406V9.41405Z" fill="#FE9923"/>
<path d="M7.3775 5.0781L8.98301 9.48435L9.53375 9.28513L10.9986 8.75779V4.74994L10.6822 3.88275L7.3775 5.0781Z" fill="#FE9923"/>
</svg>
